#tb 0: 1001/4000
#media_type 0: video
#codec_id 0: rawvideo
#dimensions 0: 320x180
#sar 0: 1/1
0,          0,          0,        1,   172800, 0xa99bf27e
0,          1,          1,        1,   172800, 0x6e2fdfe3
0,          2,          2,        1,   172800, 0x96e7ea35
0,          3,          3,        1,   172800, 0x832ff6cf
0,          4,          4,        1,   172800, 0x7a2dffb9
0,          5,          5,        1,   172800, 0xa0a05854
0,          6,          6,        1,   172800, 0x91d93f46
0,          7,          7,        1,   172800, 0x3051d27b
0,          8,          8,        1,   172800, 0x0c13b87c
0,          9,          9,        1,   172800, 0xa80eba4c
0,         10,         10,        1,   172800, 0xd206ba19
0,         11,         11,        1,   172800, 0x6608b61c
